<?xml version="1.0" encoding="UTF-8" standalone="no"?>
<svg width="182px" height="132px" viewBox="0 0 182 132" version="1.1" xmlns="http://www.w3.org/2000/svg" xmlns:xlink="http://www.w3.org/1999/xlink" xmlns:sketch="http://www.bohemiancoding.com/sketch/ns">
    <!-- Generator: Sketch 3.0 (7574) - http://www.bohemiancoding.com/sketch -->
    <title>PlasticBoxWithPaperGreen</title>
    <description>Created with Sketch.</description>
    <defs>
        <linearGradient x1="46.0408098%" y1="30.2866586%" x2="53.9604212%" y2="96.5324977%" id="linearGradient-1">
            <stop stop-color="#000000" offset="0%"></stop>
            <stop stop-color="#484848" offset="100%"></stop>
        </linearGradient>
        <linearGradient x1="15.2003676%" y1="110.874392%" x2="71.7525778%" y2="-64.5834489%" id="linearGradient-2">
            <stop stop-color="#000409" offset="0%"></stop>
            <stop stop-color="#000409" stop-opacity="0" offset="100%"></stop>
        </linearGradient>
        <linearGradient x1="47.9257653%" y1="23.3161331%" x2="40.1120579%" y2="61.1700852%" id="linearGradient-3">
            <stop stop-color="#FFFFFF" offset="0%"></stop>
            <stop stop-color="#FFFFFF" stop-opacity="0" offset="100%"></stop>
        </linearGradient>
        <radialGradient cx="50.0001999%" cy="49.9975076%" fx="50.0001999%" fy="49.9975076%" r="24.6675864%" id="radialGradient-4">
            <stop stop-color="#000409" offset="0%"></stop>
            <stop stop-color="#000409" stop-opacity="0" offset="100%"></stop>
        </radialGradient>
        <linearGradient x1="58.9886092%" y1="57.3773989%" x2="37.7677339%" y2="68.8537698%" id="linearGradient-5">
            <stop stop-color="#DDDDDD" offset="0%"></stop>
            <stop stop-color="#FFFFFF" offset="100%"></stop>
        </linearGradient>
        <linearGradient x1="40.7839699%" y1="60.9272257%" x2="83.9150532%" y2="50%" id="linearGradient-6">
            <stop stop-color="#D3D3D3" offset="0%"></stop>
            <stop stop-color="#B3B3B3" offset="100%"></stop>
        </linearGradient>
    </defs>
    <g id="Page-1" stroke="none" stroke-width="1" fill="none" fill-rule="evenodd" sketch:type="MSPage">
        <g id="PlasticBoxWithPaperGreen" sketch:type="MSLayerGroup" transform="translate(0.000000, -4.000000)">
            <path d="M11.5004465,98.811 C11.5852765,100.2531 12.1790665,102.9675 14.0452465,103.6462 L97.8452465,134.3042 C100.729346,135.7463 105.604546,135.15248 107.979246,134.04972 L164.698246,102.11972 C167.243046,101.01692 169.024446,99.15072 169.278946,96.52112 L176.614146,35.44512 C177.038286,31.64282 180.516246,33.18462 180.940346,29.89132 L181.831036,21.87512 C182.000686,20.81482 180.897936,19.62722 179.413436,19.20302 L71.4534365,4.73402 C69.2903365,4.14023 66.4086365,4.18264 64.3727365,4.734019 L2.75573647,18.311019 C1.14403647,18.819979 0.041236471,20.346919 0.210936471,21.364819 L0.210936671,28.999319 C0.595066671,31.698819 3.77853667,30.027419 4.92603667,33.999319 L11.5004465,98.811 Z" id="path3748" fill="url(#linearGradient-1)" sketch:type="MSShapeGroup"></path>
            <path d="M12.153,17.893 L105.74,37.898 L173.06,19.735 L69.05,5.34 L12.153,17.893 L12.153,17.893 Z" id="path3750" stroke="url(#linearGradient-3)" stroke-width="1.25" opacity="0.59716" fill="url(#linearGradient-2)" sketch:type="MSShapeGroup"></path>
            <path d="M100.85,54.372 L101.439761,90.2709999 C101.659841,103.667333 102.1,130.46 102.1,130.46 L11.11,78.398 L5.563,30.954 L100.85,54.372 Z" id="path3752" opacity="0.35071" sketch:type="MSShapeGroup"></path>
            <rect id="rect3797" opacity="0.34597" sketch:type="MSShapeGroup" transform="translate(105.202352, 93.734920) rotate(0.119645) translate(-105.202352, -93.734920) " x="102.202345" y="56.2349524" width="5.504712" height="74.6789352" rx="2.5192"></rect>
            <path d="M110.782,54.528 C107.4737,55.5459 103.533,55.6295 100.781,54.37893 L101.04038,76.70693 C102.69448,76.45245 104.66118,76.62333 107.54028,75.90357 C110.41938,75.18378 174.12028,52.87057 174.12028,52.87057 L177.69998,32.49157 L110.782,54.528 Z" id="path3786" opacity="0.40758" sketch:type="MSShapeGroup"></path>
            <path d="M4.953,18.711 L12.0785,17.3332 L106.0875,38.5172 L174.0345,19.3252 L179.8876,19.72876 L106.0876,42.07976 L4.9576,18.71076 L4.953,18.711 Z" id="path3791" opacity="0.20379" fill="#FFFFFF" sketch:type="MSShapeGroup"></path>
            <rect id="rect3809" opacity="0.3" fill-opacity="0.46667" fill="#000409" sketch:type="MSShapeGroup" transform="translate(53.193790, 35.977620) rotate(13.753176) translate(-53.193790, -35.977620) " x="0.193729673" y="30.97762" width="105.970121" height="10.437" rx="2.3868"></rect>
            <path d="M119.15,21.044 C119.15,28.68446 107.954209,34.8782766 94.1435,34.8782766 C80.3327914,34.8782766 69.137,28.68446 69.137,21.044 C69.137,13.40354 80.3327914,7.20972339 94.1435,7.20972339 C107.954209,7.20972339 119.15,13.40354 119.15,21.044 L119.15,21.044 Z" id="path2404" opacity="0.55924" fill="url(#radialGradient-4)" sketch:type="MSShapeGroup"></path>
            <path d="M99.59,6.5 C95.2774,5.4218 88.421,17.144 88.809,19.469 C88.55561,20.736 87.0581,21.8093 87.3715,23.0628 C88.4151,27.2374 91.0558,27.0261 84.8403,31.6878 C83.7109,32.53489 83.0279,33.1629 82.1528,33.8753 L105.7488,38.9053 L155.6588,25.4373 C158.8699,22.9225 147.9419,21.0016 146.0338,19.0935 C141.2423,14.302 142.1131,19.27262 142.94,22.156 C143.1592,22.67039 143.38198,23.1784 143.5025,23.781 C143.61666,24.35179 143.30145,23.41624 142.94,22.156 C140.5589,16.5682 132.747,16.1931 126.596,22.3435 C120.0204,28.9191 124.0741,22.343501 119.7522,22.3435 C113.7909,22.3435 116.1515,18.031 112.9397,18.031 C112.44508,18.031 113.60534,16.1867 113.28345,16.5622 C106.35825,24.6415 107.67715,8.52 99.59545,6.5002 L99.59,6.5 Z" id="path3813" fill="url(#linearGradient-5)" sketch:type="MSShapeGroup"></path>
            <path d="M104.868487,16.8456384 C105.258667,17.8087009 107.165287,18.5746384 106.858287,19.5493259 C105.835887,22.7955759 102.578287,22.7360759 110.505087,26.0737009 C111.945487,26.6802384 112.823587,27.1358884 113.943187,27.6489509 L85.267187,32.4302009 L23.112187,24.0289509 C19.010487,22.2227634 32.317387,20.3226384 34.543187,18.7832009 C40.131987,14.9174509 39.371487,18.7682322 38.534887,21.0145134 C38.297587,21.4180384 38.055487,21.8167634 37.944927,22.2842009 C37.840197,22.7269509 38.169237,21.9962822 38.534887,21.0145134 C41.112587,16.6310759 50.687887,16.0391384 58.626887,20.5227259 C67.115187,25.3163509 61.725287,20.4246259 67.035287,20.2565072 C74.359587,20.0246134 71.190887,16.8048822 75.136887,16.6799447 C75.744587,16.6607072 74.204277,15.2896322 74.623127,15.5654447 C83.634427,21.5001322 81.010627,9.17169469 90.814127,7.30606969 C96.046987,6.31057594 105.200487,15.0450134 104.868487,16.8456384 Z" id="path3061" fill="url(#linearGradient-6)" sketch:type="MSShapeGroup" transform="translate(68.332370, 19.727454) rotate(9.000000) translate(-68.332370, -19.727454) "></path>
        </g>
    </g>
</svg>